<?xml version="1.0" encoding="utf-8"?>
<!-- Created with Inkscape (http://www.inkscape.org/) -->
<svg width="1045" height="1045" version="1.2" viewBox="0 0 1045 1045" baseProfile="tiny-ps" xmlns="http://www.w3.org/2000/svg">
  <title>NEOGENNIUM</title>
  <path d="m0 522.5v-522.5h1045v1045h-1045z" fill="#fcfcfc" />
  <path d="m0 522.5v-522.5h1045v1045h-1045zm439 49.516c11.309-3.1477 11-2.378 11-27.435 0-15.418-0.34199-21.666-1.2542-22.913-1.1179-1.5289-3.2092-1.6854-19.25-1.4411l-17.996 0.27408-0.32368 3.3884c-0.17802 1.8636-0.0569 4.4511 0.26905 5.75 0.57065 2.2737 0.94459 2.3616 10.038 2.3616 11.556 0 11.516-0.0481 11.516 13.934 0 8.6362-0.27613 10.342-1.9442 12.01-2.546 2.546-7.5667 3.4162-16.386 2.8402-16.046-1.048-26.409-11.668-28.523-29.232-1.7674-14.681 2.0802-26.975 10.934-34.935 6.4539-5.8026 12.991-8.0035 23.42-7.8853 8 0.0907 19.563 3.2969 25.192 6.9854 3.254 2.1321 4.3077 0.82972 4.3077-5.3247 0-6.9282-2.4972-9.5398-11.898-12.443-14.353-4.4333-31.938-3.3882-44.759 2.66-7.3241 3.4549-16.113 12.131-19.66 19.408-5.7152 11.724-7.152 27.916-3.6814 41.486 4.4503 17.4 15.383 27.987 33.058 32.01 8.7432 1.99 25.993 1.271 35.941-1.498zm420.15 0.0585c11.808-4.4764 19.018-14.2 20.818-28.077 1.1306-8.7139 1.3573-63.965 0.26919-65.603-1.0711-1.6121-7.413-2.5493-12.138-1.7937l-4.0964 0.655-0.0245 31.622c-0.0258 33.379-0.52442 38.265-4.5258 44.352-6.5464 9.9591-24.65 11.357-33.164 2.5603-6.615-6.8347-6.7531-7.7099-7.0961-44.955l-0.30998-33.664-4.69-0.57848c-2.5795-0.31817-6.265-0.22492-8.19 0.20722l-3.5 0.78569 0.0295 35.457c0.0289 34.805 0.0726 35.565 2.3708 41.338 5.8379 14.664 17.754 20.99 38.1 20.228 7.5443-0.28273 12.09-0.99612 16.147-2.5343zm-295.4 1.2956 2.25-0.60297v-37.457c0-34.898 0.11758-37.434 1.7215-37.125 0.99324 0.19128 3.1389 3.2893 5.0721 7.3233 7.6128 15.886 32.669 62.192 35.032 64.742 2.3999 2.5899 3.0497 2.75 11.161 2.75 5.3656 0 9.0653-0.45243 9.8129-1.2 0.89915-0.89915 1.2-12.933 1.2-48v-46.8h-6.9326c-6.2507 0-7.0008 0.21499-7.6263 2.1857-0.38154 1.2022-0.52437 16.833-0.31738 34.735 0.44843 38.785 0.33282 39.112-7.946 22.466-12.594-25.322-28.465-54.091-31.266-56.672-2.9288-2.6991-3.3227-2.7767-12.69-2.5-9.1772 0.27106-9.7315 0.41233-10.93 2.7855-0.95885 1.8991-1.2658 13.119-1.277 46.679-0.0164 49.228-0.28885 47.334 6.8067 47.308 2.0232-8e-3 4.6911-0.285 5.9286-0.61664zm105.4-0.44843c1.968-1.0533 2.0116-1.9206 1.8441-36.75-0.20101-41.798-0.3298-38.171 1.3554-38.171 0.7406 0 3.9278 5.2875 7.0826 11.75 10.858 22.243 30.733 58.754 33.206 61 2.1489 1.9522 3.5614 2.248 10.671 2.2347 4.5068-8e-3 8.8692-0.44186 9.6942-0.96319 1.2984-0.82051 1.5-7.2344 1.5-47.735v-46.787h-14l-0.26304 34.821c-0.24508 32.443-0.38163 34.798-2 34.488-0.95533-0.18294-2.5012-1.9023-3.4352-3.8208-3.3513-6.8836-24.147-46.658-28.672-54.839-2.8993-5.2417-5.6264-8.8718-7.3246-9.75-3.2019-1.6558-17.975-1.9134-20.871-0.36391-1.8701 1.0009-1.9343 2.5899-1.9343 47.927 0 43.818 0.11472 46.921 1.75 47.349 3.3819 0.88379 9.4025 0.67809 11.397-0.38939zm105.61 0.44592 2.2596-0.6055-0.25963-47.627-0.25962-47.627-4.1545-0.87626c-2.4264-0.51177-5.754-0.49803-8 0.033l-3.8455 0.90929-0.25981 47.241-0.25981 47.241 2.2598 0.90802c2.6359 1.0592 9.2718 1.2722 12.519 0.40199zm145.31-0.40238c1.8627-0.99695 1.9343-2.5108 1.9343-40.941 0-22.126 0.39507-40.15 0.88669-40.454 0.48768-0.30141 1.4144 0.0878 2.0592 0.86484 0.64491 0.77706 7.1964 18.838 14.559 40.134 7.3624 21.297 13.845 39.18 14.406 39.741s3.3976 1.2096 6.3045 1.4422c10.003 0.8005 8.6438 3.0817 24.157-40.53 7.6293-21.448 14.221-39.564 14.649-40.256 0.42772-0.69206 1.4981-0.98184 2.3786-0.64396 1.4309 0.54909 1.6009 4.8534 1.6009 40.529v39.915l2.25 0.60297c3.5242 0.94445 9.6892 0.73319 11.816-0.40489 1.8686-1 1.9343-2.5712 1.9343-46.278 0-39.329-0.2035-45.533-1.5567-47.465-1.4485-2.0681-2.3226-2.2225-12.577-2.2225-10.697 0-11.1 0.0807-13.736 2.75-1.9426 1.967-5.9304 11.292-14.005 32.75-12.224 32.483-13.51 35.255-15.564 33.551-0.7179-0.5958-6.4012-15.104-12.63-32.24-6.2284-17.136-12.321-32.316-13.539-33.734-2.1142-2.4604-2.7558-2.5922-14.152-2.9075-10.06-0.27835-12.197-0.0706-13.589 1.3214-1.4881 1.4881-1.6517 6.2433-1.6517 48.007 0 43.307 0.11508 46.385 1.75 46.813 3.3618 0.87853 10.397 0.68096 12.316-0.34585zm-390.57-5.9649v-5.5l-18-0.5c-9.9-0.275-18.562-0.86406-19.25-1.309-0.90112-0.58321-1.25-4.6836-1.25-14.691s0.34888-14.108 1.25-14.691c0.6875-0.44496 8-1.034 16.25-1.309l15-0.5v-11l-14.931-0.27777c-8.9297-0.16612-15.461-0.71776-16.25-1.3724-0.95612-0.79352-1.319-4.3527-1.319-12.937 0-10.685 0.18908-11.944 1.9343-12.878 1.115-0.59672 9.1097-1.0352 18.875-1.0352h16.941l0.6-3c0.33-1.65 0.33-4.35 0-6l-0.6-3h-26.34c-25.018 0-26.392 0.0971-27.375 1.9343-1.5832 2.9582-1.4113 91.29 0.18075 92.882 0.9073 0.9073 7.9507 1.1484 27.75 0.95l26.534-0.26593z" fill="#d1d1d1" />
  <path d="m0 522.5v-522.5h1045v1045h-1045zm429 52.471c3.575-0.55774 9.5219-1.9126 13.215-3.0107 6.2953-1.8717 6.7851-2.2301 7.8306-5.7284 1.6594-5.5524 0.8969-43.397-0.91838-45.581-1.1819-1.4219-3.8498-1.6512-19.215-1.6512-19.91 0-19.913 0.00112-19.913 7.2431 0 5.8785 1.3654 6.6729 12 6.9813l9.5 0.27554 0.29235 10c0.16079 5.5 0.0485 10.978-0.24955 12.172-0.73839 2.96-6.3958 4.7071-14.887 4.5975-5.5586-0.0717-8.0584-0.68591-13.306-3.2691-11.453-5.6384-16.814-16.081-16.685-32.501 0.0862-10.942 2.5314-18.17 8.4035-24.841 10.245-11.639 27.101-13.531 46.278-5.1942 7.5886 3.2989 7.7 3.3153 8.7826 1.2924 0.60309-1.1269 0.87833-4.3196 0.61166-7.0948-0.5732-5.9654-3.1031-8.4947-11.119-11.116-9.5798-3.1329-21.278-4.0028-31.241-2.323-19.378 3.2674-32.458 13.997-38.269 31.393-4.1245 12.346-3.7347 29.354 0.95369 41.605 7.8469 20.505 30.605 31.013 57.934 26.75zm424.36-0.45972c11.552-2.4474 20.205-9.155 24.953-19.341 2.1115-4.5306 2.1764-5.7717 2.18-41.67l4e-3 -37h-17l-0.5 34.5c-0.55546 38.327-0.63998 38.843-7.3237 44.711-10.383 9.1168-26.421 6.1559-32.97-6.0869-2.1209-3.9644-2.2258-5.4614-2.7064-38.624l-0.5-34.5-7.9796-0.2962c-6.6454-0.24667-8.192-6e-3 -9.25 1.4411-1.5557 2.1275-1.7916 53.19-0.30552 66.114 2.0319 17.671 10.249 27.234 26.424 30.752 8.1368 1.77 16.619 1.7698 24.975-5.1e-4zm-287.28-1.0624c0.52901-0.32695 0.91707-16.022 0.91707-37.091 0-39.431 0.18405-40.604 4.8301-30.783 1.2816 2.709 9.2912 18.067 17.799 34.128 10.052 18.975 16.529 30.095 18.497 31.75 2.7103 2.2806 3.8942 2.5476 11.296 2.5476 6.7583 0 8.5724-0.33599 9.9333-1.8398 1.5115-1.6702 1.641-6.1631 1.405-48.75l-0.25999-46.91h-15l-0.26313 34.25c-0.29488 38.383-0.56342 39.575-6.1985 27.5-3.6488-7.8186-22.56-43.669-28.12-53.309-2.2216-3.8516-4.8623-7.0504-6.3978-7.75-1.4381-0.65523-6.5738-1.1913-11.413-1.1913-7.2726 0-9.0866 0.31898-10.463 1.8398-1.5115 1.6702-1.641 6.1601-1.405 48.705l0.25999 46.865 2.5 0.74603c2.5666 0.76592 10.445 0.30464 12.083-0.70742zm104.69-0.67303c1.2585-1.0444 1.4182-6.3637 1.1009-36.665-0.24714-23.602-0.0293-35.557 0.65216-35.785 0.56281-0.18801 2.9652 3.5992 5.3386 8.4159 11.334 23.003 31.631 60.05 34.245 62.508 2.7055 2.5438 3.5466 2.75 11.218 2.75 13.356 0 12.127 4.7739 12.464-48.412 0.1968-31.087-0.0528-46.213-0.78518-47.581-0.8994-1.6806-2.0907-2.0062-7.3385-2.0062-3.5393 0-6.7869 0.52206-7.4648 1.2-0.88541 0.88541-1.2 9.9518-1.2 34.583 0 26.252-0.26701 33.298-1.25 32.985-0.6875-0.21909-3.9614-5.7691-7.2752-12.333-3.3139-6.5642-10.945-21.111-16.958-32.326-12.963-24.179-12.879-24.1-25.767-24.105-13.977-6e-3 -12.818-4.7046-12.51 50.711l0.25988 46.695 2.5 0.74603c3.2969 0.98383 10.914 0.16047 12.77-1.3804zm106.37 0.64062c0.47555-0.29391 0.86463-22.06 0.86463-48.368 0-42.696-0.16991-47.899-1.5818-48.441-2.8554-1.0957-14.973-0.65267-16.218 0.59301-0.89906 0.89906-1.2 12.906-1.2 47.878 0 49.159-0.10628 47.996 4.5 49.253 2.2117 0.60331 12.271-0.071 13.635-0.914zm144.61-1.0897c0.94862-1.2968 1.25-10.965 1.25-40.101 0-30.265 0.26462-38.306 1.25-37.984 0.6875 0.22458 7.2199 17.691 14.516 38.814s13.95 39.089 14.786 39.925c2.1105 2.1105 14.81 2.1251 16.779 0.0193 1.1038-1.1808 12.055-31.112 27.9-76.25 0.53092-1.5125 1.5963-2.75 2.3674-2.75 1.1793 0 1.4022 6.2848 1.4022 39.531 0 45.147-0.9903 41.036 9.8455 40.873 4.2661-0.0642 6.6422-0.55569 7.2512-1.5 0.5169-0.80152 0.798-21.002 0.6546-47.05-0.3039-55.201 1.2596-50.176-15.459-49.685-10.538 0.30948-11.415 0.49372-13.822 2.9034-1.7006 1.7024-5.4439 10.161-11.063 25-14.6 38.555-15.58 40.927-16.912 40.927-0.71437 0-1.7439-1.2375-2.2879-2.75-12.653-35.179-21.652-59.236-22.849-61.084-2.4675-3.8065-7.2912-5.1665-18.325-5.1665-15.481 0-14.102-5.0683-13.792 50.715l0.25988 46.695 2.5 0.75048c4.0218 1.2073 12.337 0.0983 13.75-1.834zm-391.79-0.26086c0.56935-1.0638 1.0352-3.3434 1.0352-5.0657 0-6.942-0.16009-7-19.335-7-12.095 0-17.624-0.35934-18.465-1.2-1.6626-1.6626-1.6626-25.937 0-27.6 0.82444-0.82444 5.7984-1.2 15.893-1.2 12.476 0 14.785-0.23872 15.3-1.5818 1.0957-2.8553 0.63474-10.15-0.71201-11.268-0.78885-0.65468-7.3203-1.2063-16.25-1.3724l-14.931-0.27777-0.28046-11.602c-0.21289-8.8071 0.0456-11.873 1.0731-12.726 0.85665-0.71096 7.7512-1.2241 18.78-1.3977l17.427-0.27437v-13l-26.5-0.27653c-26.021-0.27154-26.532-0.23789-28.25 1.8608-1.6086 1.9647-1.75 5.7452-1.75 46.804 0 38.808 0.20417 44.958 1.5567 46.889 1.5418 2.2013 1.809 2.2225 27.965 2.2225 25.085 0 26.46-0.0969 27.443-1.9343z" fill="#a2a2a2" />
  <path d="m0 522.5v-522.5h1045v1045h-1045zm426.14 53.494c9.8002-1.123 21.02-4.2946 23.316-6.5914 1.3055-1.3055 1.5452-5.1715 1.5452-24.917 0-23.018-0.03363-23.395-2.2225-24.929-1.8019-1.2621-5.4694-1.5567-19.378-1.5567-19.756 0-19.949 0.0807-19.824 8.2914 0.10398 6.821 1.5566 7.7086 12.615 7.7086h8.8089v10.977c0 10.828-0.0367 11.001-2.706 12.75-3.9877 2.6128-17.185 2.3327-23.487-0.4986-9.886-4.4413-16.029-14.181-17.403-27.592-1.8824-18.373 7.1568-33.836 22.363-38.257 9.672-2.8117 18.605-1.3905 35.969 5.7229 4.5716 1.8727 5.7641 0.33285 5.6603-7.3091-0.0989-7.278-1.8165-9.2676-11.097-12.854-7.1438-2.7603-26.627-3.8438-35.605-1.98-8.7044 1.807-18.656 7.2494-24.441 13.367-9.4455 9.9872-13.561 21.39-13.599 37.674-0.0544 23.809 9.8793 39.818 29.191 47.043 9.63 3.603 17.721 4.391 30.293 2.9504zm432.68-2.2222c5.5127-1.7905 7.733-3.2297 12.683-8.221 9.9157-9.9992 9.8863-9.8508 10.281-52.021 0.38756-41.412 1.1012-38.53-9.5379-38.53-11.082 0-10.242-2.8496-10.249 34.785-3e-3 19.978-0.41865 34.202-1.0665 36.536-1.4415 5.1912-6.9728 11.076-11.757 12.51-12.208 3.6577-23.293-1.5625-27.032-12.73-0.75862-2.2658-1.1381-14.341-1.1381-36.215 0-37.884 0.92909-34.886-10.812-34.886-4.7801 0-7.3107 0.44269-8.1225 1.4209-0.8716 1.0502-1.0964 11.029-0.8618 38.25 0.3055 35.445 0.39975 37.006 2.5083 41.549 4.8394 10.426 15.03 17.867 27.057 19.758 8.1394 1.2797 20.248 0.32724 28.048-2.2062zm-328.85-0.23229c1.8332-2.2089 2.281-8.7164 0.79394-11.539-1.3139-2.4942-1.3584-2.5012-19.289-3l-17.972-0.5v-27l15.17-0.5c8.3437-0.275 15.496-0.82761 15.895-1.228 0.39837-0.40041 0.93644-2.9357 1.1957-5.6339 0.38916-4.0502 0.10228-5.275-1.6447-7.022-1.9606-1.9606-3.1837-2.1161-16.648-2.1161h-14.532l0.28173-11.75 0.28174-11.75 17.427-0.27437c10.783-0.16977 17.931-0.69302 18.75-1.3724 1.6802-1.3944 1.7758-12 0.1231-13.653-0.87078-0.87078-8.2172-1.2-26.777-1.2-21.531 0-25.929 0.24627-27.8 1.5567l-2.2225 1.5567v46.615c0 41.972 0.16483 46.797 1.655 48.443 1.5232 1.6831 3.7436 1.8287 27.878 1.8287 21.776 0 26.428-0.2477 27.435-1.4608zm36.833 0.26078c0.88816-0.88816 1.2-10.405 1.2-36.622 0-31.373 0.17147-35.28 1.5-34.178 0.825 0.68469 1.5 1.729 1.5 2.3208s7.5009 15.182 16.669 32.422c11.491 21.609 17.714 32.264 20.035 34.302 3.1401 2.757 3.9138 2.9556 11.517 2.9556 6.9923 0 8.4797-0.30904 10.465-2.1743l2.3144-2.1743v-46.79c0-53.282 0.81436-48.861-9-48.861-9.653 0-9-2.548-9 35.119 0 20.652-0.35966 32.923-0.95887 32.715-0.52739-0.18333-4.7588-7.7583-9.403-16.833-18.58-36.305-24.892-47.141-28.622-49.136-5.1881-2.7748-18.748-2.6482-22.381 0.20896l-2.6349 2.0726v46.727c0 35.01 0.30091 47.028 1.2 47.927 0.69091 0.69091 4 1.2 7.8 1.2s7.1091-0.50909 7.8-1.2zm104 0c0.88801-0.88801 1.2-10.378 1.2-36.5 0-19.415 0.36033-35.3 0.80073-35.3 0.44041 0 1.8259 2.1375 3.0788 4.75 6.7432 14.06 32.89 62.08 35.228 64.697 2.5995 2.9101 3.1493 3.0696 11.714 3.3993 14.385 0.5537 13.179 5.1899 13.179-50.646 0-35.067-0.30085-47.101-1.2-48-1.8284-1.8284-13.309-1.5484-15.229 0.37143-1.364 1.364-1.5714 5.8528-1.5714 34 0 17.836-0.35383 32.429-0.78628 32.429s-3.2233-4.9392-6.2019-10.976c-12.318-24.966-27.6-52.374-30.344-54.422-2.422-1.8083-4.213-2.1017-12.83-2.1017-15.129 0-13.838-4.7501-13.838 50.911 0 34.592 0.30131 46.491 1.2 47.389 0.69091 0.69091 4 1.2 7.8 1.2s7.1091-0.50909 7.8-1.2zm107 0c0.89946-0.89946 1.2-13.029 1.2-48.429 0-41.602-0.18722-47.416-1.5714-48.8-1.944-1.944-15.367-2.2334-17.229-0.37143-1.7765 1.7765-1.7278 97.42 0.05 98.138 2.6364 1.0638 16.369 0.64307 17.55-0.53772zm144 0c0.88958-0.88958 1.204-10.784 1.2153-38.25 0.0147-35.667 0.59126-43.345 2.8154-37.495 0.52004 1.3678 6.4334 18.453 13.141 37.966 6.7074 19.514 12.902 36.267 13.767 37.229 1.2426 1.3836 3.2095 1.75 9.3936 1.75 7.0198 0 7.9692-0.23076 9.2572-2.25 0.78938-1.2375 7.3984-19.012 14.687-39.5s13.628-37.25 14.088-37.25c0.4599 0 0.8362 16.905 0.8362 37.566 0 23.983 0.3743 38.265 1.0352 39.5 0.8695 1.6247 2.1366 1.9343 7.9182 1.9343 3.7857 0 7.5948-0.27314 8.4648-0.60699 1.4116-0.54166 1.5818-5.6999 1.5818-47.927v-47.32l-2.6349-2.0726c-2.244-1.7652-4.0385-2.0726-12.099-2.0726-11.729 0-15.362 1.4697-18.154 7.343-1.0869 2.2864-6.5519 16.307-12.144 31.157-11.247 29.864-11.78 31.088-13.009 29.857-0.47058-0.47155-5.8504-14.576-11.955-31.344-6.2692-17.219-12.03-31.476-13.237-32.761-3.0699-3.2677-8.8278-4.4808-19.424-4.0923-7.2551 0.26598-9.6633 0.72872-11.059 2.125-1.6527 1.6535-1.8046 5.2155-2.0631 48.363-0.20384 34.03 0.0312 46.951 0.87245 47.965 1.4749 1.7772 14.965 1.9285 16.707 0.18741z" fill="#5f5f5f" />
  <path d="m0 522.5v-522.5h1045v1045h-1045zm438.5 52.514c8.8642-2.2539 12.614-4.4838 13.627-8.1039 1.0969-3.921 0.95282-40.084-0.17585-44.148-0.571-2.056-1.8889-4.1935-2.9287-4.75-1.0735-0.57453-9.6448-1.0118-19.834-1.0118-20.92 0-20.688-0.10346-20.688 9.2343 0 7.9384 1.1977 8.7657 12.691 8.7657h8.8089v21.05l-2.75 1.0941c-1.5125 0.60175-5.9426 1.0926-9.8446 1.0908-15.972-7e-3 -25.807-9.0482-28.463-26.165-1.9877-12.811 1.2676-24.947 8.6803-32.36 10.196-10.196 25.729-11.249 43.665-2.9585 7.0832 3.2739 7.931 3.4575 9.3612 2.0272 2.1167-2.1167 2.8602-9.7037 1.388-14.164-2.9404-8.9093-25.821-14.685-44.689-11.282-14.896 2.6874-25.691 9.4367-33.288 20.814-6.2051 9.2922-8.5197 17.964-8.5023 31.853 0.0216 17.174 3.3764 26.822 12.788 36.773 7.5103 7.941 15.445 12.097 27.154 14.223 7.3566 1.3356 23.847 0.34512 33-1.982zm414.78 1.5147c12.79-2.7102 21.377-9.3024 26.584-20.408l2.6352-5.62 0.30747-36.971c0.28487-34.254 0.17896-37.065-1.4411-38.25-2.053-1.5012-16.1-1.7315-18.366-0.30111-1.2702 0.80184-1.5766 6.2755-2 35.735l-0.5 34.788-2.5 4.4489c-3.557 6.3299-7.843 8.5511-16.5 8.5511-8.5109 0-12.869-2.2927-16.538-8.7006-2.456-4.289-2.4631-4.3832-2.9619-39.087-0.42341-29.459-0.72976-34.933-2-35.735-0.825-0.52073-4.9015-0.95367-9.0589-0.96209-12.146-0.0246-11.39-1.9992-11.738 30.653-0.4449 41.682 1.1349 51.813 9.5793 61.431 8.5272 9.712 27.214 14.092 44.498 10.429zm-288.28-0.83495 3.5-1.1936 1-69 9.6754 18.5c17.256 32.994 23.596 44.434 26.6 48 2.9425 3.492 2.9711 3.5008 12.537 3.8448 9.164 0.32959 9.701 0.23205 12.138-2.2046l2.5494-2.5494v-46.974c0-41.37-0.18746-47.161-1.5714-48.545-1.9579-1.9579-14.208-2.1932-16.732-0.32143-1.5094 1.1196-1.7119 4.588-1.9411 33.25l-0.25593 32-5.2533-10.238c-10.655-20.767-26.456-49.816-28.075-51.614-3.2635-3.6256-6.8188-4.6476-16.168-4.6476-8.3232 0-9.3034 0.20832-11.55 2.4546l-2.4546 2.4545v47.423c0 36.724 0.282 47.655 1.25 48.45 2.6333 2.1627 9.7853 2.6049 14.75 0.91182zm107.36-1.9702c1.7435-2.0742 1.835-4.2117 1.4971-34.966-0.19793-18.016-0.05142-32.757 0.3256-32.757 0.37701 0 1.0001 1.0125 1.3847 2.25 0.74147 2.386 30.341 58.15 33.105 62.369 2.6765 4.0848 6.4358 5.381 15.606 5.381 7.7102 0 8.5679-0.20492 10.8-2.5803l2.4243-2.5803v-47c0-45.371-0.0673-47.049-1.9411-48.42-2.6926-1.9692-13.458-1.8788-16.336 0.13711-2.2157 1.5519-2.2226 1.6541-2.2626 33.25-0.0371 29.351-0.15542 31.472-1.601 28.693-11.304-21.725-25.461-48.377-28.482-53.621-4.8222-8.3698-7.6833-9.8787-18.731-9.8787-9.0672 0-12.421 1.1127-14.036 4.6573-1.3183 2.8935-1.5646 93.078-0.25972 95.135 2.3958 3.7765 15.314 3.7283 18.506-0.0691zm102.04 2.3251c2.143-0.4971 4.2736-1.4989 4.7347-2.2261 0.46111-0.72728 0.84529-22.778 0.85371-49.001 0.0135-42.024-0.17105-47.865-1.5561-49.25-1.1643-1.1643-3.6255-1.5714-9.5-1.5714-12.967 0-11.929-4.4221-11.929 50.777 0 40.112 0.2153 47.085 1.5109 48.935 2.0768 2.9651 8.8686 3.964 15.885 2.3363zm148.6-1.6202c1.2587-1.2563 1.5804-7.3219 2-37.713l0.5-36.216 8.9549 26c15.97 46.369 16.144 46.822 18.615 48.462 2.7885 1.8515 14.408 2.0568 17.522 0.30965 1.5832-0.88803 5.1989-9.8851 14.859-36.973 7.0215-19.69 13.154-36.474 13.627-37.299 0.49353-0.85986 0.88046 14.077 0.90667 35 0.0252 20.075 0.4234 37.096 0.8849 37.824 1.2307 1.941 8.7672 3.3534 13.837 2.5931 7.6905-1.1533 7.4079 0.89785 7.0815-51.387l-0.2885-46.204-2.8058-2.4127c-2.5881-2.2255-3.6352-2.4124-13.5-2.4089-12.059 4e-3 -15.803 1.4049-18.693 6.9941-1.1819 2.2855-16.836 42.985-23.037 59.895-0.28099 0.76622-0.7372 1.1668-1.0138 0.89022-0.2766-0.2766-5.4275-13.941-11.446-30.364-6.0189-16.424-11.787-30.999-12.817-32.39-2.7335-3.6891-7.3976-4.9089-19.013-4.9724-10.113-0.0553-10.387 4e-3 -13.25 2.8666l-2.9231 2.9231 0.0153 46.327c8e-3 25.48 0.38428 46.909 0.83524 47.619 2.1085 3.3236 15.994 3.7847 19.149 0.63588zm-391.87-0.082c0.80886-0.97462 1.3724-3.9913 1.3724-7.3463 0-9.0654 0.14985-9-20.622-9h-17.878v-26h14.943c14.308 0 15.009-0.0944 16.5-2.2225 2.3041-3.2896 2.0468-11.287-0.4433-13.777-1.8165-1.8165-3.3333-2-16.534-2h-14.534l0.56766-21.5 17.5-0.26357c20.218-0.3045 20-0.20252 20-9.3561 0-9.1944 1.042-8.8803-29.461-8.8803-24.422 0-26.488 0.13768-28.679 1.9116l-2.3608 1.9116v94.353l2.3608 1.9116c2.193 1.7758 4.2631 1.9116 29.128 1.9116 23.678 0 26.925-0.19081 28.139-1.6537z" fill="#fb0000" />
  <path d="m0 522.5v-522.5h1045v1045h-1045zm438.5 52.514c8.8642-2.2539 12.614-4.4838 13.627-8.1039 1.0969-3.921 0.95282-40.084-0.17585-44.148-0.571-2.056-1.8889-4.1935-2.9287-4.75-1.0735-0.57453-9.6448-1.0118-19.834-1.0118-20.92 0-20.688-0.10346-20.688 9.2343 0 7.9384 1.1977 8.7657 12.691 8.7657h8.8089v21.05l-2.75 1.0941c-1.5125 0.60175-5.9426 1.0926-9.8446 1.0908-15.972-7e-3 -25.807-9.0482-28.463-26.165-1.9877-12.811 1.2676-24.947 8.6803-32.36 10.196-10.196 25.729-11.249 43.665-2.9585 7.0832 3.2739 7.931 3.4575 9.3612 2.0272 2.1167-2.1167 2.8602-9.7037 1.388-14.164-2.9404-8.9093-25.821-14.685-44.689-11.282-14.896 2.6874-25.691 9.4367-33.288 20.814-6.2051 9.2922-8.5197 17.964-8.5023 31.853 0.0216 17.174 3.3764 26.822 12.788 36.773 7.5103 7.941 15.445 12.097 27.154 14.223 7.3566 1.3356 23.847 0.34512 33-1.982zm414.78 1.5147c12.79-2.7102 21.377-9.3024 26.584-20.408l2.6352-5.62 0.30747-36.971c0.28487-34.254 0.17896-37.065-1.4411-38.25-2.053-1.5012-16.1-1.7315-18.366-0.30111-1.2702 0.80184-1.5766 6.2755-2 35.735l-0.5 34.788-2.5 4.4489c-3.557 6.3299-7.843 8.5511-16.5 8.5511-8.5109 0-12.869-2.2927-16.538-8.7006-2.456-4.289-2.4631-4.3832-2.9619-39.087-0.42341-29.459-0.72976-34.933-2-35.735-0.825-0.52073-4.9015-0.95367-9.0589-0.96209-12.146-0.0246-11.39-1.9992-11.738 30.653-0.4449 41.682 1.1349 51.813 9.5793 61.431 8.5272 9.712 27.214 14.092 44.498 10.429zm-288.28-0.83495 3.5-1.1936 1-69 9.6754 18.5c17.256 32.994 23.596 44.434 26.6 48 2.9425 3.492 2.9711 3.5008 12.537 3.8448 9.164 0.32959 9.701 0.23205 12.138-2.2046l2.5494-2.5494v-46.974c0-41.37-0.18746-47.161-1.5714-48.545-1.9579-1.9579-14.208-2.1932-16.732-0.32143-1.5094 1.1196-1.7119 4.588-1.9411 33.25l-0.25593 32-5.2533-10.238c-10.655-20.767-26.456-49.816-28.075-51.614-3.2635-3.6256-6.8188-4.6476-16.168-4.6476-8.3232 0-9.3034 0.20832-11.55 2.4546l-2.4546 2.4545v47.423c0 36.724 0.282 47.655 1.25 48.45 2.6333 2.1627 9.7853 2.6049 14.75 0.91182zm107.36-1.9702c1.7435-2.0742 1.835-4.2117 1.4971-34.966-0.19793-18.016-0.05142-32.757 0.3256-32.757 0.37701 0 1.0001 1.0125 1.3847 2.25 0.74147 2.386 30.341 58.15 33.105 62.369 2.6765 4.0848 6.4358 5.381 15.606 5.381 7.7102 0 8.5679-0.20492 10.8-2.5803l2.4243-2.5803v-47c0-45.371-0.0673-47.049-1.9411-48.42-2.6926-1.9692-13.458-1.8788-16.336 0.13711-2.2157 1.5519-2.2226 1.6541-2.2626 33.25-0.0371 29.351-0.15542 31.472-1.601 28.693-11.304-21.725-25.461-48.377-28.482-53.621-4.8222-8.3698-7.6833-9.8787-18.731-9.8787-9.0672 0-12.421 1.1127-14.036 4.6573-1.3183 2.8935-1.5646 93.078-0.25972 95.135 2.3958 3.7765 15.314 3.7283 18.506-0.0691zm102.04 2.3251c2.143-0.4971 4.2736-1.4989 4.7347-2.2261 0.46111-0.72728 0.84529-22.778 0.85371-49.001 0.0135-42.024-0.17105-47.865-1.5561-49.25-1.1643-1.1643-3.6255-1.5714-9.5-1.5714-12.967 0-11.929-4.4221-11.929 50.777 0 40.112 0.2153 47.085 1.5109 48.935 2.0768 2.9651 8.8686 3.964 15.885 2.3363zm148.6-1.6202c1.2587-1.2563 1.5804-7.3219 2-37.713l0.5-36.216 8.9549 26c15.97 46.369 16.144 46.822 18.615 48.462 2.7885 1.8515 14.408 2.0568 17.522 0.30965 1.5832-0.88803 5.1989-9.8851 14.859-36.973 7.0215-19.69 13.154-36.474 13.627-37.299 0.49353-0.85986 0.88046 14.077 0.90667 35 0.0252 20.075 0.4234 37.096 0.8849 37.824 1.2307 1.941 8.7672 3.3534 13.837 2.5931 7.6905-1.1533 7.4079 0.89785 7.0815-51.387l-0.2885-46.204-2.8058-2.4127c-2.5881-2.2255-3.6352-2.4124-13.5-2.4089-12.059 4e-3 -15.803 1.4049-18.693 6.9941-1.1819 2.2855-16.836 42.985-23.037 59.895-0.28099 0.76622-0.7372 1.1668-1.0138 0.89022-0.2766-0.2766-5.4275-13.941-11.446-30.364-6.0189-16.424-11.787-30.999-12.817-32.39-2.7335-3.6891-7.3976-4.9089-19.013-4.9724-10.113-0.0553-10.387 4e-3 -13.25 2.8666l-2.9231 2.9231 0.0153 46.327c8e-3 25.48 0.38428 46.909 0.83524 47.619 2.1085 3.3236 15.994 3.7847 19.149 0.63588zm-391.87-0.082c0.80886-0.97462 1.3724-3.9913 1.3724-7.3463 0-9.0654 0.14985-9-20.622-9h-17.878v-26h14.943c14.308 0 15.009-0.0944 16.5-2.2225 2.3041-3.2896 2.0468-11.287-0.4433-13.777-1.8165-1.8165-3.3333-2-16.534-2h-14.534l0.56766-21.5 17.5-0.26357c20.218-0.3045 20-0.20252 20-9.3561 0-9.1944 1.042-8.8803-29.461-8.8803-24.422 0-26.488 0.13768-28.679 1.9116l-2.3608 1.9116v94.353l2.3608 1.9116c2.193 1.7758 4.2631 1.9116 29.128 1.9116 23.678 0 26.925-0.19081 28.139-1.6537zm-214.93-0.4609c17.123-3.6015 30.143-16.515 34.259-33.978 1.9942-8.4601 1.9987-26.725 9e-3 -34.365-5.8623-22.505-23.33-34.542-50.13-34.542-12.374 0-18.763 1.2311-27.312 5.2624-16.603 7.8295-25.377 23.829-25.355 46.238 0.0267 27.37 11.876 44.943 34.327 50.907 6.6596 1.7691 26.729 2.0496 34.201 0.47808zm-23.701-21.092c-5.3885-1.8836-9.6715-5.9299-12.37-11.686-2.3602-5.0348-2.6284-6.7804-2.6292-17.107-1e-3 -13.833 1.7409-19.886 7.2683-25.256 4.6723-4.5394 7.8546-5.7496 15.046-5.7218 9.9358 0.0384 16.082 4.1104 20.364 13.49 1.9649 4.3051 2.2672 6.5612 2.2096 16.488-0.0803 13.834-2.3575 21.18-8.0091 25.839-5.8245 4.801-14.811 6.4253-21.879 3.9545zm-239.5-5.7344c0-28.502 0.37893-30.78 4.3205-25.973 1.0888 1.3279 9.6746 13.664 19.08 27.414l17.1 25 28.518 0.55503-0.51836-101.56h-27l-0.2662 27.32c-0.24395 25.036-0.40759 27.293-1.9575 26.994-0.93022-0.17914-8.1329-9.7732-16.006-21.32-7.8731-11.547-16.336-23.82-18.807-27.273l-4.4926-6.2781-27.47 0.55625-0.26026 49.5c-0.14314 27.225-0.04477 50.062 0.21862 50.75 0.35047 0.91482 4.1072 1.25 14.01 1.25h13.531zm178 16.441v-10.5h-25.809c-19.233 0-26.25-0.32233-27.539-1.2651-1.4771-1.0801-1.6879-2.7256-1.4411-11.25l0.28904-9.9849 49-1v-18l-49-1-0.29377-7.8448c-0.18436-4.9231 0.14058-8.3682 0.87244-9.25 0.94677-1.1408 6.0424-1.4052 27.08-1.4052h25.914l-0.57242-19.5h-83l-0.26026 49.5c-0.14314 27.225-0.0448 50.062 0.21861 50.75 0.3726 0.97258 9.8072 1.25 42.51 1.25h42.031z" fill="#a50000" />
  <path d="m0 522.5v-522.5h1045v1045h-1045zm438.5 52.514c8.8642-2.2539 12.614-4.4838 13.627-8.1039 1.0969-3.921 0.95282-40.084-0.17585-44.148-0.571-2.056-1.8889-4.1935-2.9287-4.75-1.0735-0.57453-9.6448-1.0118-19.834-1.0118-20.92 0-20.688-0.10346-20.688 9.2343 0 7.9384 1.1977 8.7657 12.691 8.7657h8.8089v21.05l-2.75 1.0941c-1.5125 0.60175-5.9426 1.0926-9.8446 1.0908-15.972-7e-3 -25.807-9.0482-28.463-26.165-1.9877-12.811 1.2676-24.947 8.6803-32.36 10.196-10.196 25.729-11.249 43.665-2.9585 7.0832 3.2739 7.931 3.4575 9.3612 2.0272 2.1167-2.1167 2.8602-9.7037 1.388-14.164-2.9404-8.9093-25.821-14.685-44.689-11.282-14.896 2.6874-25.691 9.4367-33.288 20.814-6.2051 9.2922-8.5197 17.964-8.5023 31.853 0.0216 17.174 3.3764 26.822 12.788 36.773 7.5103 7.941 15.445 12.097 27.154 14.223 7.3566 1.3356 23.847 0.34512 33-1.982zm414.78 1.5147c12.79-2.7102 21.377-9.3024 26.584-20.408l2.6352-5.62 0.30747-36.971c0.28487-34.254 0.17896-37.065-1.4411-38.25-2.053-1.5012-16.1-1.7315-18.366-0.30111-1.2702 0.80184-1.5766 6.2755-2 35.735l-0.5 34.788-2.5 4.4489c-3.557 6.3299-7.843 8.5511-16.5 8.5511-8.5109 0-12.869-2.2927-16.538-8.7006-2.456-4.289-2.4631-4.3832-2.9619-39.087-0.42341-29.459-0.72976-34.933-2-35.735-0.825-0.52073-4.9015-0.95367-9.0589-0.96209-12.146-0.0246-11.39-1.9992-11.738 30.653-0.4449 41.682 1.1349 51.813 9.5793 61.431 8.5272 9.712 27.214 14.092 44.498 10.429zm-534.41-2.1677c16.813-4.3793 29.541-18.1 33.12-35.707 1.5604-7.675 1.5642-25.116 7e-3 -31.83-4.159-17.931-16.628-30.627-34.703-35.335-7.6519-1.9931-27.032-1.9696-34.755 0.0421-21.675 5.6456-34.516 22.227-36.09 46.603-1.817 28.144 11.114 49.682 33.565 55.906 11.115 3.0813 27.731 3.2184 38.856 0.32065zm-22.373-21.803c-0.55-0.21053-2.2488-0.65857-3.7752-0.99564-4.5301-1.0004-10.394-7.0817-12.415-12.875-2.7689-7.9376-2.4824-25.494 0.52476-32.151 1.2331-2.7299 3.0123-5.831 3.9538-6.8912 4.9497-5.5742 17.129-7.316 24.889-3.5595 8.1875 3.9635 11.527 11.612 11.558 26.469 0.0322 15.791-3.3785 23.953-11.812 28.268-2.2414 1.1467-11.287 2.3613-12.923 1.7351zm268.5 23.136 3.5-1.1936 1-69 9.6754 18.5c17.256 32.994 23.596 44.434 26.6 48 2.9425 3.492 2.9711 3.5008 12.537 3.8448 9.164 0.32959 9.701 0.23205 12.138-2.2046l2.5494-2.5494v-46.974c0-41.37-0.18746-47.161-1.5714-48.545-1.9579-1.9579-14.208-2.1932-16.732-0.32143-1.5094 1.1196-1.7119 4.588-1.9411 33.25l-0.25593 32-5.2533-10.238c-10.655-20.767-26.456-49.816-28.075-51.614-3.2635-3.6256-6.8188-4.6476-16.168-4.6476-8.3232 0-9.3034 0.20832-11.55 2.4546l-2.4546 2.4545v47.423c0 36.724 0.282 47.655 1.25 48.45 2.6333 2.1627 9.7853 2.6049 14.75 0.91182zm107.36-1.9702c1.7435-2.0742 1.835-4.2117 1.4971-34.966-0.19793-18.016-0.05142-32.757 0.3256-32.757 0.37701 0 1.0001 1.0125 1.3847 2.25 0.74147 2.386 30.341 58.15 33.105 62.369 2.6765 4.0848 6.4358 5.381 15.606 5.381 7.7102 0 8.5679-0.20492 10.8-2.5803l2.4243-2.5803v-47c0-45.371-0.0673-47.049-1.9411-48.42-2.6926-1.9692-13.458-1.8788-16.336 0.13711-2.2157 1.5519-2.2226 1.6541-2.2626 33.25-0.0371 29.351-0.15542 31.472-1.601 28.693-11.304-21.725-25.461-48.377-28.482-53.621-4.8222-8.3698-7.6833-9.8787-18.731-9.8787-9.0672 0-12.421 1.1127-14.036 4.6573-1.3183 2.8935-1.5646 93.078-0.25972 95.135 2.3958 3.7765 15.314 3.7283 18.506-0.0691zm102.04 2.3251c2.143-0.4971 4.2736-1.4989 4.7347-2.2261 0.46111-0.72728 0.84529-22.778 0.85371-49.001 0.0135-42.024-0.17105-47.865-1.5561-49.25-1.1643-1.1643-3.6255-1.5714-9.5-1.5714-12.967 0-11.929-4.4221-11.929 50.777 0 40.112 0.2153 47.085 1.5109 48.935 2.0768 2.9651 8.8686 3.964 15.885 2.3363zm148.6-1.6202c1.2587-1.2563 1.5804-7.3219 2-37.713l0.5-36.216 8.9549 26c15.97 46.369 16.144 46.822 18.615 48.462 2.7885 1.8515 14.408 2.0568 17.522 0.30965 1.5832-0.88803 5.1989-9.8851 14.859-36.973 7.0215-19.69 13.154-36.474 13.627-37.299 0.49353-0.85986 0.88046 14.077 0.90667 35 0.0252 20.075 0.4234 37.096 0.8849 37.824 1.2307 1.941 8.7672 3.3534 13.837 2.5931 7.6905-1.1533 7.4079 0.89785 7.0815-51.387l-0.2885-46.204-2.8058-2.4127c-2.5881-2.2255-3.6352-2.4124-13.5-2.4089-12.059 4e-3 -15.803 1.4049-18.693 6.9941-1.1819 2.2855-16.836 42.985-23.037 59.895-0.28099 0.76622-0.7372 1.1668-1.0138 0.89022-0.2766-0.2766-5.4275-13.941-11.446-30.364-6.0189-16.424-11.787-30.999-12.817-32.39-2.7335-3.6891-7.3976-4.9089-19.013-4.9724-10.113-0.0553-10.387 4e-3 -13.25 2.8666l-2.9231 2.9231 0.0153 46.327c8e-3 25.48 0.38428 46.909 0.83524 47.619 2.1085 3.3236 15.994 3.7847 19.149 0.63588zm-391.87-0.082c0.80886-0.97462 1.3724-3.9913 1.3724-7.3463 0-9.0654 0.14985-9-20.622-9h-17.878v-26h14.943c14.308 0 15.009-0.0944 16.5-2.2225 2.3041-3.2896 2.0468-11.287-0.4433-13.777-1.8165-1.8165-3.3333-2-16.534-2h-14.534l0.56766-21.5 17.5-0.26357c20.218-0.3045 20-0.20252 20-9.3561 0-9.1944 1.042-8.8803-29.461-8.8803-24.422 0-26.488 0.13768-28.679 1.9116l-2.3608 1.9116v94.353l2.3608 1.9116c2.193 1.7758 4.2631 1.9116 29.128 1.9116 23.678 0 26.925-0.19081 28.139-1.6537zm-477.09-26.346c0.298-14.575 0.6355-26.639 0.75-26.809 0.64326-0.95482 3.8087 3.3236 20.253 27.374l18.11 26.488 29.345-0.55258v-103h-29l-0.26648 26.828c-0.20585 20.724-0.54713 26.737-1.5 26.429-0.67844-0.2191-9.3778-12.292-19.332-26.828l-18.098-26.429h-29.803l-0.26016 50.5c-0.14309 27.775-0.03995 51.075 0.2292 51.778 0.37256 0.97265 3.8956 1.2113 14.76 1l14.271-0.27758zm178.35 25.418c1.1479-2.9913 0.65181-18.976-0.64301-20.719-1.1079-1.4919-4.2621-1.7125-27.75-1.9411l-26.5-0.25794v-19l49-1v-20l-49-1-0.29066-7.0938c-0.20821-5.0816 0.0985-7.4168 1.0814-8.2325 0.92681-0.76918 9.6199-1.2255 26.791-1.4062l25.419-0.26753v-21h-85l-0.26016 50.5c-0.1431 27.775-0.0447 51.062 0.21861 51.75 0.37274 0.97315 9.9857 1.25 43.403 1.25 38.219 0 42.991-0.1734 43.531-1.5818z" fill="#5d0000" />
  <path d="m0 522.5v-522.5h1045v1045h-1045zm320.71 52.683c8.7422-2.7449 14.136-6.174 20.466-13.011 9.6585-10.432 13.189-21.039 13.206-39.672 0.0162-17.673-3.8397-28.812-13.515-39.042-9.603-10.154-22.243-14.728-40.872-14.791-18.531-0.0623-29.465 3.857-40.139 14.388-10.501 10.359-14.37 21.271-14.341 40.445 0.0163 10.854 0.40046 14.155 2.3274 20 4.9672 15.066 15.722 26.306 29.626 30.962 11.836 3.9635 31.851 4.2971 43.241 0.72082zm-24.809-24.169c-5.4675-0.98726-10.167-4.1861-12.598-8.5754-4.2049-7.5924-5.1055-21.401-2.1484-32.939 4.9794-19.428 32.399-19.151 37.825 0.38237 1.3267 4.7763 1.2928 19.728-0.059 26.032-0.59127 2.757-2.0538 6.4525-3.25 8.2122-3.7011 5.4446-11.915 8.3063-19.77 6.8879zm142.59 24.023c8.8738-2.2822 12.616-4.5141 13.627-8.1273 1.0969-3.921 0.95282-40.084-0.17585-44.148-0.571-2.056-1.8889-4.1935-2.9287-4.75-1.0735-0.57453-9.6448-1.0118-19.834-1.0118-20.92 0-20.688-0.10346-20.688 9.2343 0 7.9384 1.1977 8.7657 12.691 8.7657h8.8089v21.05l-2.75 1.0941c-1.5125 0.60175-5.9426 1.0926-9.8446 1.0908-15.999-7e-3 -25.806-9.045-28.474-26.239-1.1841-7.6319-0.15808-17.124 2.5521-23.611 2.0001-4.7868 8.9709-11.909 13.945-14.247 9.7005-4.5598 22.496-3.637 35.86 2.5861 7.0832 3.2983 7.931 3.4843 9.3612 2.054 2.1167-2.1167 2.8602-9.7037 1.388-14.164-2.9623-8.976-25.813-14.685-44.965-11.233-19.797 3.5677-33.541 15.474-39.335 34.077-1.7281 5.5478-2.1903 9.481-2.1789 18.542 0.0216 17.174 3.3764 26.822 12.788 36.773 7.5103 7.941 15.445 12.097 27.154 14.223 7.4504 1.3526 23.928 0.37461 33-1.9586zm414.78 1.4914c12.79-2.7102 21.377-9.3024 26.584-20.408l2.6352-5.62 0.30747-36.971c0.28487-34.254 0.17896-37.065-1.4411-38.25-2.053-1.5012-16.1-1.7315-18.366-0.30111-1.2702 0.80184-1.5766 6.2755-2 35.735l-0.5 34.788-2.5 4.4489c-3.557 6.3299-7.843 8.5511-16.5 8.5511-8.5109 0-12.869-2.2927-16.538-8.7006-2.456-4.289-2.4631-4.3832-2.9619-39.087-0.42341-29.459-0.72976-34.933-2-35.735-0.825-0.52073-4.9015-0.95367-9.0589-0.96209-12.172-0.0247-11.39-2.1215-11.736 31.501-0.42437 41.345 1.1128 50.943 9.731 60.759 8.3962 9.5627 27.145 13.898 44.344 10.253zm-288.28-0.83495 3.5-1.1936 1-69 9.6754 18.5c17.256 32.994 23.596 44.434 26.6 48 2.9425 3.492 2.9711 3.5008 12.537 3.8448 9.164 0.32959 9.701 0.23205 12.138-2.2046l2.5494-2.5494v-47.51c0-54.53 1.0226-49.581-10.243-49.581-10.369 0-9.7068-2.2834-10.001 34.5l-0.25593 32-3.8597-7.5c-12.52-24.329-26.287-49.943-28.353-52.751-3.7285-5.0694-6.9908-6.249-17.284-6.249-8.3232 0-9.3034 0.20832-11.55 2.4546l-2.4546 2.4545v47.423c0 36.724 0.282 47.655 1.25 48.45 2.6333 2.1627 9.7853 2.6049 14.75 0.91182zm107.35-1.9603c1.7325-2.0607 1.827-4.2584 1.5-34.882-0.27831-26.064-0.0958-32.472 0.90102-31.645 0.6875 0.57077 1.25 1.4704 1.25 1.9991 0 1.0999 25.533 49.345 30.728 58.061 4.4389 7.4475 7.0217 8.7328 17.548 8.7328 7.7102 0 8.5679-0.20492 10.8-2.5803l2.4243-2.5803v-47c0-45.371-0.0673-47.049-1.9411-48.42-2.6926-1.9692-13.458-1.8788-16.336 0.13711-2.2154 1.5518-2.2227 1.6576-2.2691 33.25l-0.0466 31.693-2.5505-5c-6.1998-12.154-23.998-45.596-27.475-51.621-4.8391-8.3884-7.6802-9.8787-18.833-9.8787-8.4861 0-13.261 1.5041-14.428 4.5448-0.93601 2.4392-0.71611 93.757 0.22937 95.248 2.3918 3.7701 15.314 3.7288 18.498-0.0592zm102.05 2.3152c2.143-0.4971 4.2736-1.4989 4.7347-2.2261 0.46111-0.72728 0.84529-22.778 0.85371-49.001 0.0135-42.024-0.17105-47.865-1.5561-49.25-1.1643-1.1643-3.6255-1.5714-9.5-1.5714-12.967 0-11.929-4.4221-11.929 50.777 0 40.112 0.2153 47.085 1.5109 48.935 2.0768 2.9651 8.8686 3.964 15.885 2.3363zm148.6-1.6202c1.2587-1.2563 1.5804-7.3219 2-37.713l0.5-36.216 12.5 36.372c10.269 29.88 12.938 36.662 14.956 38 2.9249 1.9389 14.428 2.1999 17.636 0.40014 1.5832-0.88803 5.1989-9.8851 14.859-36.973 7.0215-19.69 13.154-36.474 13.627-37.299 0.49345-0.85971 0.87393 13.939 0.89136 34.668 0.0167 19.893 0.30171 36.875 0.63321 37.739 0.8725 2.2735 7.8639 3.8537 13.575 3.0681 8.3012-1.1417 7.9396 1.3029 7.6103-51.446l-0.2885-46.204-2.8058-2.4127c-2.5881-2.2255-3.6352-2.4124-13.5-2.4089-12.059 4e-3 -15.803 1.4049-18.693 6.9941-1.1928 2.3066-15.52 39.551-23.081 60.002-0.49298 1.3333-0.64532 1.3333-1.3711 0-0.44906-0.825-5.4495-14.266-11.112-29.868-5.6626-15.603-11.243-29.778-12.401-31.5-2.8641-4.2605-7.1991-5.5087-19.363-5.5752-10.113-0.0553-10.387 4e-3 -13.25 2.8666l-2.9231 2.9231 0.0153 46.327c8e-3 25.48 0.38428 46.909 0.83524 47.619 2.1085 3.3236 15.994 3.7847 19.149 0.63588zm-868.31 0.3217c0.44496-0.6875 1.034-12.5 1.309-26.25l0.5-25 16.388 24c9.0133 13.2 17.304 25.012 18.424 26.25 1.937 2.1401 2.7587 2.25 16.827 2.25 13.599 0 14.874-0.15576 15.826-1.9343 1.6188-3.0248 1.4082-100.17-0.22197-102.4-1.1087-1.5162-3.0277-1.6864-16.25-1.4411l-14.993 0.27812-1 53-2.5898-3.5c-1.4244-1.925-9.4802-13.625-17.902-26-8.4216-12.375-15.806-22.837-16.41-23.249-0.60401-0.41196-7.8482-0.63696-16.098-0.5l-15 0.24902-0.26007 51.5c-0.14304 28.325-0.04466 52.062 0.21862 52.75 0.68359 1.7851 30.077 1.7851 31.232 0zm178.11 0.05c1.7559-1.7559 1.6419-22.188-0.13206-23.661-0.87965-0.73005-10.304-1.1962-27.75-1.3724l-26.418-0.26693v-17l49-1v-22l-49-1-0.59138-13.5h25.355c18.845 0 25.798-0.32427 27.082-1.2631 1.4879-1.088 1.6877-2.786 1.4411-12.25l-0.28624-10.987h-87l-0.26007 51.5c-0.14304 28.325-0.0447 52.062 0.21861 52.75 0.68004 1.7758 86.567 1.8244 88.341 0.05zm298.33-0.45369c0.80886-0.97463 1.3724-3.9913 1.3724-7.3463 0-9.0654 0.14985-9-20.622-9h-17.878v-26h14.943c14.308 0 15.009-0.0944 16.5-2.2225 2.3041-3.2896 2.0468-11.287-0.4433-13.777-1.8165-1.8165-3.3333-2-16.534-2h-14.534l0.56766-21.5 17.5-0.26357c20.218-0.3045 20-0.20252 20-9.3561 0-9.1944 1.042-8.8803-29.461-8.8803-24.422 0-26.488 0.13768-28.679 1.9116l-2.3608 1.9116v94.353l2.3608 1.9116c2.193 1.7758 4.2631 1.9116 29.128 1.9116 23.678 0 26.925-0.19081 28.139-1.6537z" />
</svg>