<?xml version="1.0" encoding="utf-8"?>
<svg width="400" height="400" version="1.2" viewBox="0 0 105.83333 105.83334" baseProfile="tiny-ps" xmlns="http://www.w3.org/2000/svg">
  <title>NEOGENNIUM</title>
  <g>
    <rect width="105.83334" height="105.83334" stroke-width=".272732" />
  </g>
  <g transform="matrix(.32622086 0 0 .32622086 -4.61907 -119.8204)">
    <g fill="#f00">
      <path d="m38.875 515.14453h8.261719l10.78125 15.83984v-15.83984h8.339843v28.63281h-8.339843l-10.722657-15.72265v15.72265h-8.320312z" color="#000000" />
      <path d="m72.117187 515.14453h23.710938v6.11328h-14.84375v4.55078h13.769531v5.83985h-13.769531v5.64453h15.273437v6.48437h-24.140625z" color="#000000" />
      <path d="m99.910156 529.48047q0-7.01172 3.906254-10.91797 3.90625-3.90625 10.8789-3.90625 7.14844 0 11.01563 3.84766 3.86718 3.82812 3.86718 10.74218 0 5.01953-1.69921 8.24219-1.67969 3.20313-4.88282 5-3.18359 1.77734-7.94921 1.77734-4.84375 0-8.02735-1.54296-3.16406-1.54297-5.13672-4.88282-1.972654-3.33984-1.972654-8.35937zm8.847654 0.0391q0 4.33594 1.60157 6.23047 1.62109 1.89453 4.39453 1.89453 2.85156 0 4.41406-1.85547t1.5625-6.66015q0-4.04297-1.64063-5.89844-1.62109-1.875-4.41406-1.875-2.67578 0-4.29687 1.89453-1.6211 1.89453-1.6211 6.26953z" color="#000000" />
    </g>
    <g fill="#fff">
      <path d="m156.74414 520.29492q0 0.62305-0.0644 1.07422-0.043 0.45117-0.15039 0.73047-0.0859 0.25781-0.23633 0.36523-0.12891 0.10743-0.32227 0.10743-0.27929 0-0.90234-0.38672t-1.6543-0.83789q-1.03125-0.45118-2.4707-0.83789-1.41797-0.38672-3.30859-0.38672-2.01954 0-3.65235 0.70898-1.63281 0.6875-2.79297 1.97656-1.16015 1.26758-1.7832 3.07227-0.62305 1.7832-0.62305 3.95312 0 2.38477 0.62305 4.21094 0.64453 1.80469 1.7832 3.0293t2.72852 1.84765q1.61133 0.62305 3.54492 0.62305 0.94531 0 1.86914-0.21484 0.92383-0.21485 1.71875-0.64453v-6.44532h-5.26367q-0.38672 0-0.60156-0.47265-0.21485-0.49414-0.21485-1.6543 0-0.60156 0.043-1.00976 0.0645-0.40821 0.17188-0.64454 0.10742-0.25781 0.25781-0.36523 0.15039-0.12891 0.34375-0.12891h9.38867q0.34375 0 0.60156 0.12891 0.2793 0.10742 0.47266 0.34375 0.21484 0.23633 0.32227 0.58008 0.10742 0.32226 0.10742 0.75195v11.06445q0 0.64454-0.23633 1.13868-0.21484 0.47265-0.92383 0.75195-0.6875 0.2793-1.71875 0.58008t-2.14844 0.51562q-1.0957 0.21485-2.23437 0.32227-1.11719 0.10742-2.25586 0.10742-3.33008 0-5.97266-0.94531-2.62109-0.9668-4.44726-2.77149-1.82617-1.82617-2.79297-4.42578-0.9668-2.62109-0.9668-5.92969 0-3.41601 1.03125-6.12304 1.03125-2.72852 2.92188-4.61914 1.89062-1.91211 4.55468-2.92188 2.68555-1.00976 5.97266-1.00976 1.80469 0 3.28711 0.25781 1.48242 0.23633 2.57812 0.60156 1.11719 0.34375 1.84766 0.75195 0.73047 0.40821 1.00977 0.70899 0.30078 0.30078 0.42968 0.85937 0.12891 0.53711 0.12891 1.61133z" color="#000000" />
      <path d="m178.95898 541.56445q0 0.62305-0.0644 1.05274-0.043 0.4082-0.15039 0.66601-0.10742 0.25782-0.2793 0.38672-0.15039 0.10742-0.34375 0.10742h-13.96484q-0.70898 0-1.20313-0.4082-0.47265-0.42969-0.47265-1.375v-24.23437q0-0.94532 0.47265-1.35352 0.49415-0.42969 1.20313-0.42969h13.87891q0.19336 0 0.34375 0.10742 0.15039 0.10743 0.25781 0.38672 0.10742 0.25782 0.15039 0.6875 0.0644 0.40821 0.0644 1.05274 0 0.60156-0.0644 1.03125-0.043 0.4082-0.15039 0.66601-0.10742 0.25782-0.25781 0.38672-0.15039 0.10742-0.34375 0.10742h-9.92579v6.78907h8.4004q0.19335 0 0.34375 0.1289 0.17187 0.10742 0.27929 0.36524 0.10742 0.23632 0.15039 0.66601 0.0645 0.40821 0.0645 1.00977 0 0.62304-0.0645 1.03125-0.043 0.4082-0.15039 0.66601-0.10742 0.23633-0.27929 0.34375-0.1504 0.10743-0.34375 0.10743h-8.4004v7.84179h10.01172q0.19336 0 0.34375 0.12891 0.17188 0.10742 0.2793 0.36523 0.10742 0.25782 0.15039 0.6875 0.0644 0.40821 0.0644 1.03125z" color="#000000" />
      <path d="m206.86719 541.80078q0 0.49414-0.17188 0.88086-0.17187 0.38672-0.47265 0.64453-0.2793 0.25781-0.6875 0.38672-0.38672 0.10742-0.79493 0.10742h-2.40625q-0.75195 0-1.31054-0.15039-0.53711-0.15039-1.00977-0.53711-0.45117-0.4082-0.88086-1.07422-0.42969-0.6875-0.96679-1.76172l-6.91797-12.99804q-0.60157-1.16016-1.22461-2.49219-0.62305-1.35352-1.11719-2.62109h-0.043q0.0859 1.54687 0.12891 3.09375 0.043 1.52539 0.043 3.1582v14.54492q0 0.21485-0.12891 0.38672-0.10742 0.17188-0.4082 0.30078-0.2793 0.10742-0.77344 0.17188-0.49414 0.0644-1.26758 0.0644-0.75195 0-1.24609-0.0644-0.49414-0.0645-0.77344-0.17188-0.2793-0.1289-0.38672-0.30078-0.10742-0.17187-0.10742-0.38672v-24.98633q0-1.00976 0.58008-1.5039 0.60156-0.51563 1.46093-0.51563h3.0293q0.81641 0 1.375 0.15039 0.5586 0.12891 0.98828 0.45117 0.45117 0.32227 0.83789 0.90235 0.38672 0.55859 0.79493 1.39648l5.41406 10.16211q0.47265 0.92383 0.92383 1.82617 0.47265 0.88086 0.90234 1.78321 0.42969 0.88086 0.83789 1.74023 0.4082 0.85938 0.79492 1.71875h0.0215q-0.0645-1.5039-0.10743-3.13672-0.0215-1.63281-0.0215-3.11523v-13.04102q0-0.21484 0.12891-0.38672 0.1289-0.17187 0.42968-0.30078 0.30079-0.1289 0.79493-0.17187 0.49414-0.0645 1.26757-0.0645 0.73047 0 1.22461 0.0645 0.49414 0.043 0.75196 0.17187 0.27929 0.12891 0.38672 0.30078 0.10742 0.17188 0.10742 0.38672z" color="#000000" />
      <path d="m235.84961 541.80078q0 0.49414-0.17188 0.88086-0.17187 0.38672-0.47265 0.64453-0.2793 0.25781-0.6875 0.38672-0.38672 0.10742-0.79492 0.10742h-2.40625q-0.75196 0-1.31055-0.15039-0.53711-0.15039-1.00977-0.53711-0.45117-0.4082-0.88086-1.07422-0.42968-0.6875-0.96679-1.76172l-6.91797-12.99804q-0.60156-1.16016-1.22461-2.49219-0.62305-1.35352-1.11719-2.62109h-0.043q0.0859 1.54687 0.12891 3.09375 0.043 1.52539 0.043 3.1582v14.54492q0 0.21485-0.12891 0.38672-0.10742 0.17188-0.4082 0.30078-0.2793 0.10742-0.77344 0.17188-0.49414 0.0644-1.26758 0.0644-0.75195 0-1.24609-0.0644-0.49414-0.0645-0.77344-0.17188-0.2793-0.1289-0.38672-0.30078-0.10742-0.17187-0.10742-0.38672v-24.98633q0-1.00976 0.58008-1.5039 0.60156-0.51563 1.46094-0.51563h3.02929q0.81641 0 1.375 0.15039 0.5586 0.12891 0.98828 0.45117 0.45118 0.32227 0.8379 0.90235 0.38671 0.55859 0.79492 1.39648l5.41406 10.16211q0.47266 0.92383 0.92383 1.82617 0.47265 0.88086 0.90234 1.78321 0.42969 0.88086 0.83789 1.74023 0.40821 0.85938 0.79492 1.71875h0.0215q-0.0644-1.5039-0.10742-3.13672-0.0215-1.63281-0.0215-3.11523v-13.04102q0-0.21484 0.12891-0.38672 0.1289-0.17187 0.42969-0.30078 0.30078-0.1289 0.79492-0.17187 0.49414-0.0645 1.26758-0.0645 0.73046 0 1.22461 0.0645 0.49414 0.043 0.75195 0.17187 0.2793 0.12891 0.38672 0.30078 0.10742 0.17188 0.10742 0.38672z" color="#000000" />
      <path d="m247.58008 543.00391q0 0.21484-0.15039 0.38671-0.12891 0.17188-0.45117 0.2793-0.32227 0.10742-0.85938 0.17188-0.53711 0.0644-1.375 0.0644-0.81641 0-1.375-0.0644-0.53711-0.0645-0.85937-0.17188-0.32227-0.10742-0.47266-0.2793-0.12891-0.17187-0.12891-0.38671v-26.25391q0-0.21484 0.12891-0.38672 0.15039-0.17187 0.47266-0.2793 0.34375-0.10742 0.88085-0.17187 0.53711-0.0644 1.35352-0.0644 0.83789 0 1.375 0.0644t0.85938 0.17187q0.32226 0.10743 0.45117 0.2793 0.15039 0.17188 0.15039 0.38672z" color="#000000" />
      <path d="m276.32617 533.42187q0 2.55665-0.75195 4.57618t-2.21289 3.41601q-1.46094 1.39649-3.60938 2.12696-2.14843 0.73046-4.9414 0.73046-2.6211 0-4.70508-0.64453-2.08399-0.66601-3.52344-1.99804-1.43945-1.33204-2.21289-3.3086-0.75195-1.99804-0.75195-4.66211v-16.9082q0-0.21484 0.1289-0.38672 0.12891-0.17187 0.45118-0.2793 0.34375-0.10742 0.88085-0.17187 0.53711-0.0644 1.375-0.0644 0.81641 0 1.35352 0.0644t0.85938 0.17187q0.32226 0.10743 0.45117 0.2793 0.15039 0.17188 0.15039 0.38672v16.41406q0 1.6543 0.4082 2.87891 0.4082 1.20312 1.16016 1.99805 0.77343 0.79492 1.82617 1.20312 1.07422 0.38672 2.38476 0.38672 1.33204 0 2.38477-0.4082 1.05273-0.40821 1.7832-1.18164 0.73047-0.79493 1.11719-1.9336 0.4082-1.16015 0.4082-2.62109v-16.73633q0-0.21484 0.12891-0.38672 0.12891-0.17187 0.45117-0.2793 0.32227-0.10742 0.85938-0.17187 0.55859-0.0644 1.375-0.0644 0.8164 0 1.33203 0.0644 0.53711 0.0644 0.85937 0.17187 0.32227 0.10743 0.45118 0.2793 0.1289 0.17188 0.1289 0.38672z" color="#000000" />
      <path d="m314.76172 543.00391q0 0.21484-0.12891 0.38671-0.10742 0.17188-0.42969 0.2793-0.30078 0.10742-0.8164 0.17188-0.51563 0.0644-1.31055 0.0644-0.77344 0-1.28906-0.0644-0.51563-0.0645-0.81641-0.17188-0.30078-0.10742-0.42968-0.2793-0.12891-0.17187-0.12891-0.38671v-22.62305h-0.043l-8.05664 22.60156q-0.0859 0.2793-0.2793 0.47266-0.19336 0.17187-0.53711 0.27929-0.32226 0.10743-0.83789 0.12891-0.51562 0.043-1.24609 0.043t-1.24609-0.0644q-0.51563-0.043-0.85938-0.15039-0.32227-0.12891-0.51562-0.30079-0.19336-0.17187-0.25782-0.4082l-7.77734-22.60156h-0.043v22.62305q0 0.21484-0.12891 0.38671-0.10742 0.17188-0.42968 0.2793-0.32227 0.10742-0.83789 0.17188-0.49414 0.0644-1.28907 0.0644-0.77343 0-1.28906-0.0644-0.51562-0.0645-0.83789-0.17188-0.30078-0.10742-0.42969-0.2793-0.10742-0.17187-0.10742-0.38671v-24.77149q0-1.0957 0.58008-1.67578t1.54687-0.58008h3.69532q0.98828 0 1.69726 0.17188 0.70899 0.15039 1.22461 0.53711 0.51563 0.36523 0.85938 0.98828 0.34375 0.60156 0.60156 1.5039l6.01562 16.56446h0.0859l6.23047-16.52149q0.2793-0.90234 0.60156-1.52539 0.34375-0.62304 0.77344-1.00976 0.45117-0.38672 1.05273-0.53711 0.60157-0.17188 1.39649-0.17188h3.80273q0.58008 0 0.98828 0.15039 0.42969 0.15039 0.6875 0.45117 0.2793 0.2793 0.40821 0.70899 0.15039 0.4082 0.15039 0.94531z" color="#000000" />
    </g>
  </g>
</svg>